<svg width="24" height="24" viewBox="0 0 24 24" fill="none" xmlns="http://www.w3.org/2000/svg">
<path fill-rule="evenodd" clip-rule="evenodd" d="M0 12C0 5.37258 5.37258 0 12 0C18.6274 0 24 5.37258 24 12C24 18.6274 18.6274 24 12 24C5.37258 24 0 18.6274 0 12ZM8.48027 9.93888H5.76081V18.1097H8.48027V9.93888ZM8.65938 7.41135C8.64173 6.6102 8.06882 6 7.13851 6C6.2082 6 5.59999 6.6102 5.59999 7.41135C5.59999 8.1959 6.19022 8.82367 7.10321 8.82367H7.12059C8.06882 8.82367 8.65938 8.1959 8.65938 7.41135ZM18.2877 13.4248C18.2877 10.9151 16.9461 9.74704 15.1566 9.74704C13.7127 9.74704 13.0663 10.5401 12.7053 11.0965V9.93913H9.98555C10.0214 10.7058 9.98555 18.11 9.98555 18.11H12.7053V13.5467C12.7053 13.3025 12.723 13.0589 12.7949 12.8841C12.9914 12.3962 13.4389 11.8911 14.1902 11.8911C15.1747 11.8911 15.5682 12.6403 15.5682 13.7384V18.1098H18.2876L18.2877 13.4248Z" fill="white"/>
</svg>
