<svg width="11" height="7" viewBox="0 0 11 7" fill="none" xmlns="http://www.w3.org/2000/svg">
<g clip-path="url(#clip0)">
<path d="M0.883855 3.80898L8.45219 3.80898L6.78945 5.4724C6.56011 5.70184 6.56011 6.04599 6.78945 6.27543C7.01879 6.50487 7.36281 6.50487 7.59215 6.27543L10.2296 3.6369C10.4589 3.40747 10.4589 3.06331 10.2296 2.83387L7.59215 0.195345C7.36281 -0.0340922 7.01879 -0.0340922 6.78945 0.195345C6.56011 0.424782 6.56011 0.768938 6.78945 0.998375L8.45219 2.6618L0.883855 2.66179C0.597175 2.66179 0.310496 2.89123 0.310496 3.23539C0.310496 3.57954 0.597175 3.80898 0.883855 3.80898Z" fill="#22BB66"/>
</g>
<defs>
<clipPath id="clip0">
<rect width="10.0911" height="6.42424" fill="white" transform="translate(10.4016 6.44751) rotate(-180)"/>
</clipPath>
</defs>
</svg>
