<svg width="13" height="8" viewBox="0 0 13 8" fill="none" xmlns="http://www.w3.org/2000/svg">
<g clip-path="url(#clip0)">
<path d="M1.18182 4.71429L10.1818 4.71429L8.20455 6.78571C7.93182 7.07143 7.93182 7.5 8.20455 7.78571C8.47727 8.07143 8.88636 8.07143 9.15909 7.78571L12.2955 4.5C12.5682 4.21429 12.5682 3.78571 12.2955 3.5L9.15909 0.214287C8.88636 -0.0714277 8.47727 -0.0714277 8.20455 0.214287C7.93182 0.500001 7.93182 0.928572 8.20455 1.21429L10.1818 3.28571L1.18182 3.28571C0.840908 3.28571 0.499999 3.57143 0.499999 4C0.499999 4.42857 0.840908 4.71429 1.18182 4.71429Z" fill="white"/>
</g>
<defs>
<clipPath id="clip0">
<rect width="12" height="8" fill="white" transform="translate(12.5 8) rotate(-180)"/>
</clipPath>
</defs>
</svg>
