<svg width="70" height="48" viewBox="0 0 70 48" fill="none" xmlns="http://www.w3.org/2000/svg">
<g clip-path="url(#clip0)">
<path d="M49.4538 47.3333H0V32.2729H40.9889L41.4029 33.0108H0.757371V46.5954H49.0385L49.4538 47.3333Z" fill="white"/>
<path d="M7.14481 40.9183H4.67073L4.18475 42.0338H3.23804L5.46471 37.2129H6.36977L8.60275 42.0338H7.64215L7.14481 40.9183ZM6.83555 40.2161L5.90272 38.1082L4.9762 40.2161H6.83555Z" fill="white"/>
<path d="M14.2512 42.0338L13.2414 40.6219C13.178 40.6281 13.1144 40.6305 13.0508 40.6293H11.9336V42.0338H11.0134V37.2129H13.0495C14.3496 37.2129 15.1562 37.861 15.1562 38.9285C15.1712 39.2587 15.0769 39.5848 14.8871 39.8587C14.6973 40.1326 14.4221 40.3398 14.1022 40.4498L15.2383 42.0338H14.2512ZM13.0066 37.9754H11.9324V39.8976H13.0066C13.8132 39.8976 14.2297 39.5385 14.2297 38.9334C14.2297 38.3283 13.8132 37.9705 13.0066 37.9705V37.9754Z" fill="white"/>
<path d="M18.9986 37.9705H17.3577V37.2129H21.5573V37.9705H19.9163V42.0289H18.9974L18.9986 37.9705Z" fill="white"/>
<path d="M24.01 37.2129H24.929V42.0338H24.01V37.2129Z" fill="white"/>
<path d="M32.2853 37.2129L30.1294 42.0338H29.2243L27.062 37.2129H28.058L29.7052 40.9319L31.3664 37.2129H32.2853Z" fill="white"/>
<path d="M37.1666 40.9183H34.6925L34.2053 42.0338H33.2573L35.489 37.2129H36.3941L38.6283 42.0338H37.6665L37.1666 40.9183ZM36.8624 40.2161L35.9296 38.1082L35.0043 40.2161H36.8624Z" fill="white"/>
<path d="M41.4144 37.9705H39.781V37.2129H43.9794V37.9705H42.3384V42.0289H41.4195L41.4144 37.9705Z" fill="white"/>
<path d="M46.4507 37.2129H47.3696V42.0338H46.4507V37.2129Z" fill="white"/>
<path d="M49.6179 39.6185C49.6179 38.1796 50.754 37.1392 52.2687 37.1392C53.0741 37.1392 53.7671 37.422 54.2265 37.9447L53.632 38.4895C53.4661 38.3086 53.2623 38.1645 53.0343 38.0671C52.8062 37.9697 52.5593 37.9212 52.3104 37.925C51.2854 37.925 50.5432 38.6272 50.5432 39.6185C50.5432 40.6097 51.2854 41.3132 52.3104 41.3132C52.5601 41.3172 52.8077 41.2682 53.036 41.1694C53.2643 41.0707 53.4677 40.9245 53.632 40.7413L54.2265 41.2922C53.7671 41.8161 53.0741 42.0978 52.2611 42.0978C50.7489 42.1027 49.6179 41.0635 49.6179 39.6185Z" fill="white"/>
<path d="M55.4573 41.5113C55.4573 41.3616 55.5183 41.218 55.627 41.1121C55.7356 41.0063 55.883 40.9468 56.0367 40.9468C56.1903 40.9468 56.3377 41.0063 56.4464 41.1121C56.555 41.218 56.6161 41.3616 56.6161 41.5113C56.6161 41.661 56.555 41.8046 56.4464 41.9104C56.3377 42.0163 56.1903 42.0758 56.0367 42.0758C55.883 42.0758 55.7356 42.0163 55.627 41.9104C55.5183 41.8046 55.4573 41.661 55.4573 41.5113Z" fill="white"/>
<path d="M62.2093 40.9183H59.7353L59.248 42.0338H58.3L60.5267 37.2129H61.4318L63.666 42.0338H62.7042L62.2093 40.9183ZM61.9051 40.2161L60.9723 38.1082L60.0458 40.2161H61.9051Z" fill="white"/>
<path d="M65.7511 37.2129H66.6675V42.0338H65.7485L65.7511 37.2129Z" fill="white"/>
<path d="M69.9999 32.2729V47.3333H49.4537L49.0384 46.5954H69.2425V33.0108H41.4028L40.9888 32.2729H69.9999Z" fill="white"/>
<path d="M23.687 1.1359L19.5442 9.25269L11.4214 25.1801C11.0494 25.9383 10.4647 26.5786 9.73494 27.0267C9.00516 27.4748 8.16011 27.7125 7.29749 27.7123H0.378906L14.7689 2.76048C14.979 2.39429 15.2464 2.06234 15.5617 1.77663L15.5718 1.76802C15.9877 1.39209 16.4783 1.10328 17.0133 0.919447L17.0411 0.909608C17.2144 0.851124 17.3915 0.803878 17.5712 0.768179C17.8451 0.714404 18.1237 0.687215 18.4031 0.687012H23.432L23.687 1.1359Z" fill="white"/>
<path d="M38.6952 27.7115H29.377L19.5438 9.2556L15.5601 1.7783L15.5702 1.76969C15.986 1.39376 16.4767 1.10495 17.0117 0.921116L17.0395 0.911278C17.2102 0.845135 17.3881 0.7977 17.5696 0.769849C17.8435 0.716074 18.1221 0.688884 18.4015 0.688681H18.9884C20.8036 0.643177 23.4304 0.688681 23.4304 0.688681L23.6829 1.13756L38.6952 27.7115Z" fill="white"/>
<path d="M69.6227 0.68656L55.7552 25.3702C55.3565 26.0781 54.7697 26.6684 54.0564 27.0795C53.3431 27.4906 52.5295 27.7073 51.7008 27.7069H46.8889L46.5103 27.0379L50.6758 18.9789L58.9753 2.93344C59.3255 2.25636 59.8618 1.68732 60.5244 1.28973C61.187 0.892138 61.9499 0.681622 62.7281 0.681641L69.6227 0.68656Z" fill="white"/>
<path d="M54.7353 26.6054C53.8954 27.318 52.8196 27.711 51.7059 27.7123H46.889L46.5103 27.0432L31.6267 0.687012H40.9449L50.6796 18.9842L54.7353 26.6054Z" fill="white"/>
</g>
<defs>
<clipPath id="clip0">
<rect width="70" height="46.6667" fill="white" transform="translate(0 0.666504)"/>
</clipPath>
</defs>
</svg>
