<svg width="24" height="24" viewBox="0 0 24 24" fill="none" xmlns="http://www.w3.org/2000/svg">
<path d="M11.061 9.96643C11.1393 9.93441 11.2461 9.91838 11.3813 9.91838C11.4239 9.91838 11.5093 9.92208 11.6374 9.92905C11.7655 9.93617 11.9753 9.9541 12.2671 9.98246L11.1144 6.6523C10.8155 5.80556 10.5843 5.25249 10.4206 4.9926C10.2568 4.73285 10.0791 4.60303 9.88691 4.60303C9.7375 4.60303 9.61635 4.66009 9.524 4.77379C9.4315 4.88763 9.38525 5.0406 9.38525 5.23275C9.38525 5.56014 9.50962 6.12934 9.75879 6.9405C10.0078 7.75171 10.3814 8.8155 10.8795 10.1318C10.9223 10.0536 10.9826 9.99845 11.061 9.96643Z" fill="white"/>
<path d="M12.3418 14.2627C12.5126 14.0493 12.6923 13.8555 12.8809 13.6811C13.0693 13.5067 13.2668 13.3519 13.4732 13.2167C13.1673 13.2025 12.8772 13.1705 12.6034 13.1207C12.3294 13.071 12.0679 12.9997 11.8188 12.9072C11.9325 13.1351 12.034 13.3626 12.1231 13.5903C12.212 13.8181 12.2848 14.0423 12.3418 14.2627Z" fill="white"/>
<path d="M16.2055 11.5303C15.9136 11.2886 15.3463 11.0714 14.5031 10.8793C13.6599 10.6872 12.7793 10.5911 11.8614 10.5911C11.6052 10.5911 11.4238 10.6338 11.3171 10.7191C11.2103 10.8045 11.157 10.9504 11.157 11.1567C11.157 11.6407 11.4274 11.991 11.9682 12.208C12.5088 12.4252 13.384 12.5336 14.5938 12.5336H15.0315C15.1311 12.5336 15.2111 12.571 15.2716 12.6457C15.332 12.7204 15.373 12.8325 15.3944 12.9819C15.2732 13.0957 15.0244 13.2257 14.6472 13.3714C14.27 13.5173 13.9818 13.6614 13.7827 13.8037C13.3557 14.1169 13.0124 14.4886 12.7527 14.9191C12.4928 15.3498 12.3631 15.757 12.3631 16.1412C12.3631 16.3761 12.4181 16.6589 12.5285 16.9897C12.6389 17.3206 12.694 17.5251 12.694 17.6034V17.6782L12.6726 17.7742C12.3594 17.7529 12.1123 17.5698 11.9308 17.2245C11.7494 16.8795 11.6587 16.4187 11.6587 15.8423V15.7464C11.6016 15.7962 11.5466 15.8318 11.4932 15.8532C11.4398 15.8744 11.3811 15.8852 11.3171 15.8852C11.253 15.8852 11.1925 15.8798 11.1356 15.8691C11.0785 15.8585 11.0145 15.8424 10.9435 15.8211C10.9648 15.8995 10.9809 15.9759 10.9916 16.0506C11.0022 16.1253 11.0075 16.184 11.0075 16.2267C11.0075 16.49 10.9044 16.7161 10.698 16.9044C10.4915 17.093 10.246 17.1873 9.96159 17.1873C9.51329 17.1873 9.05788 16.9685 8.59536 16.5308C8.13269 16.0933 7.90159 15.6647 7.90159 15.2447C7.90159 15.1665 7.91046 15.097 7.92825 15.0366C7.94589 14.9762 7.9763 14.9245 8.01899 14.8818C8.1186 15.0029 8.25735 15.1807 8.43527 15.4155C8.90491 16.063 9.33883 16.3867 9.73746 16.3867C9.8725 16.3867 9.9936 16.3441 10.1003 16.2587C10.2071 16.1733 10.2604 16.0843 10.2604 15.9918C10.2604 15.8851 10.1893 15.7074 10.047 15.4582C9.90447 15.2091 9.70895 14.9282 9.45993 14.615C9.17528 14.252 8.93853 13.987 8.75013 13.8198C8.56158 13.6527 8.41027 13.569 8.29653 13.569C8.04731 13.569 7.81787 13.7024 7.60808 13.9693C7.39813 14.2361 7.29321 14.551 7.29321 14.9138C7.29321 15.2058 7.36617 15.5313 7.51202 15.8905C7.65774 16.2498 7.86958 16.6109 8.14711 16.9738C8.56695 17.536 9.088 17.9681 9.71081 18.2705C10.3334 18.5732 11.0218 18.7242 11.7761 18.7242C13.1636 18.7242 14.3253 18.2066 15.261 17.1713C16.1966 16.136 16.6646 14.8392 16.6646 13.2808C16.6646 12.8043 16.6288 12.4253 16.5578 12.1441C16.4866 11.863 16.3692 11.6584 16.2055 11.5303Z" fill="white"/>
<path d="M9.67337 13.8036C9.98648 14.2236 10.2818 14.5508 10.5593 14.7856C10.8368 15.0204 11.0572 15.1378 11.2211 15.1378C11.342 15.1378 11.4522 15.0829 11.5519 14.9724C11.6515 14.8621 11.7013 14.743 11.7013 14.6148C11.7013 14.4797 11.6035 14.1649 11.4078 13.6702C11.212 13.1756 10.9684 12.69 10.6767 12.2133C10.4632 11.8575 10.2533 11.5889 10.047 11.4074C9.84043 11.226 9.64491 11.1353 9.45992 11.1353C9.31051 11.1353 9.14506 11.2297 8.96358 11.4181C8.78215 11.6067 8.69141 11.7828 8.69141 11.9465C8.69141 12.1172 8.78039 12.3734 8.95822 12.7149C9.136 13.0566 9.3745 13.4195 9.67337 13.8036Z" fill="white"/>
<path d="M12.0005 0C5.37295 0 0 5.37203 0 11.9995C0 18.627 5.37295 24 12.0005 24C18.6275 24 24.0005 18.627 24.0005 11.9995C24.0005 5.37203 18.6275 0 12.0005 0ZM15.7947 17.7263C14.7166 18.8683 13.338 19.4392 11.6587 19.4392C10.997 19.4392 10.3548 19.32 9.73216 19.0817C9.10936 18.8433 8.57407 18.5106 8.12583 18.0837C7.6135 17.6142 7.22924 17.1179 6.9731 16.595C6.71691 16.072 6.58884 15.5366 6.58884 14.9885C6.58884 14.3767 6.72047 13.9036 6.98377 13.5691C7.24688 13.2346 7.66316 13.007 8.23255 12.8859C8.12588 12.6368 8.04742 12.4269 7.99776 12.2561C7.94795 12.0854 7.92305 11.9538 7.92305 11.8613C7.92305 11.5411 8.09206 11.2139 8.43002 10.8793C8.76784 10.5448 9.08645 10.3776 9.38533 10.3776C9.5134 10.3776 9.64844 10.4008 9.79089 10.447C9.93324 10.4934 10.0967 10.5698 10.2819 10.6765C9.73382 9.12529 9.33548 7.92807 9.08645 7.08484C8.83723 6.24167 8.71291 5.65994 8.71291 5.33977C8.71291 4.89859 8.82661 4.54829 9.05448 4.28845C9.28216 4.0287 9.59171 3.89888 9.98304 3.89888C10.6518 3.89888 11.4987 5.39318 12.5233 8.38177C12.7011 8.8941 12.8365 9.28899 12.9289 9.56657C13.0072 9.3461 13.1174 9.0329 13.2598 8.62729C14.2845 5.66715 15.1667 4.18713 15.9069 4.18713C16.2698 4.18713 16.5596 4.30989 16.7768 4.55536C16.9938 4.80088 17.1023 5.13012 17.1023 5.54264C17.1023 5.8559 16.9831 6.42856 16.7447 7.26106C16.5062 8.09362 16.1452 9.18231 15.6614 10.5271C16.3018 10.6482 16.7537 10.9185 17.0169 11.3383C17.2801 11.7583 17.4118 12.42 17.4118 13.3236C17.4117 15.1167 16.8727 16.5843 15.7947 17.7263Z" fill="white"/>
<path d="M16.008 7.13813C16.2748 6.29495 16.4083 5.77726 16.4083 5.58515C16.4083 5.37877 16.3638 5.21868 16.2749 5.10484C16.1858 4.9911 16.0631 4.93408 15.9067 4.93408C15.7074 4.93408 15.5046 5.09948 15.2983 5.43038C15.0918 5.76128 14.8642 6.29329 14.6152 7.02609L13.5479 10.1107L14.8927 10.3456C15.3692 9.05041 15.7412 7.98135 16.008 7.13813Z" fill="white"/>
</svg>
