<svg width="24" height="24" viewBox="0 0 24 24" fill="none" xmlns="http://www.w3.org/2000/svg">
<path fill-rule="evenodd" clip-rule="evenodd" d="M0 12C0 5.37258 5.37258 0 12 0C18.6274 0 24 5.37258 24 12C24 18.6274 18.6274 24 12 24C5.37258 24 0 18.6274 0 12ZM18.1325 9.03661C17.9853 8.47111 17.5516 8.0258 17.0008 7.87466C16.0027 7.6 12 7.6 12 7.6C12 7.6 7.99731 7.6 6.99913 7.87466C6.44836 8.0258 6.01462 8.47111 5.86742 9.03661C5.6 10.0615 5.6 12.2 5.6 12.2C5.6 12.2 5.6 14.3384 5.86742 15.3634C6.01462 15.9289 6.44836 16.3742 6.99913 16.5254C7.99731 16.8 12 16.8 12 16.8C12 16.8 16.0027 16.8 17.0008 16.5254C17.5516 16.3742 17.9853 15.9289 18.1325 15.3634C18.4 14.3384 18.4 12.2 18.4 12.2C18.4 12.2 18.4 10.0615 18.1325 9.03661Z" fill="white"/>
<path fill-rule="evenodd" clip-rule="evenodd" d="M10.8 14.4V10.4L14 12.4001L10.8 14.4Z" fill="white"/>
</svg>
